<?xml version="1.0" encoding="UTF-8" standalone="no"?>
<!DOCTYPE svg PUBLIC "-//W3C//DTD SVG 1.1//EN"
 "http://www.w3.org/Graphics/SVG/1.1/DTD/svg11.dtd">
<!-- Generated by graphviz version 2.38.0 (20140413.2041)
 -->
<!-- Title: snakemake_dag Pages: 1 -->
<svg width="1142pt" height="1062pt"
 viewBox="0.00 0.00 1142.00 1062.00" xmlns="http://www.w3.org/2000/svg" xmlns:xlink="http://www.w3.org/1999/xlink">
<g id="graph0" class="graph" transform="scale(1 1) rotate(0) translate(4 1058)">
<title>snakemake_dag</title>
<polygon fill="white" stroke="none" points="-4,4 -4,-1058 1138,-1058 1138,4 -4,4"/>
<!-- 0 -->
<g id="node1" class="node"><title>0</title>
<path fill="none" stroke="#8fd856" stroke-width="2" d="M536.5,-36C536.5,-36 506.5,-36 506.5,-36 500.5,-36 494.5,-30 494.5,-24 494.5,-24 494.5,-12 494.5,-12 494.5,-6 500.5,-0 506.5,-0 506.5,-0 536.5,-0 536.5,-0 542.5,-0 548.5,-6 548.5,-12 548.5,-12 548.5,-24 548.5,-24 548.5,-30 542.5,-36 536.5,-36"/>
<text text-anchor="middle" x="521.5" y="-15.5" font-family="sans" font-size="10.00">all</text>
</g>
<!-- 1 -->
<g id="node2" class="node"><title>1</title>
<path fill="none" stroke="#a7d856" stroke-width="2" d="M574.5,-108C574.5,-108 468.5,-108 468.5,-108 462.5,-108 456.5,-102 456.5,-96 456.5,-96 456.5,-84 456.5,-84 456.5,-78 462.5,-72 468.5,-72 468.5,-72 574.5,-72 574.5,-72 580.5,-72 586.5,-78 586.5,-84 586.5,-84 586.5,-96 586.5,-96 586.5,-102 580.5,-108 574.5,-108"/>
<text text-anchor="middle" x="521.5" y="-87.5" font-family="sans" font-size="10.00">gatk_ApplyRecalibration</text>
</g>
<!-- 1&#45;&gt;0 -->
<g id="edge1" class="edge"><title>1&#45;&gt;0</title>
<path fill="none" stroke="grey" stroke-width="2" d="M521.5,-71.6966C521.5,-63.9827 521.5,-54.7125 521.5,-46.1124"/>
<polygon fill="grey" stroke="grey" stroke-width="2" points="525,-46.1043 521.5,-36.1043 518,-46.1044 525,-46.1043"/>
</g>
<!-- 2 -->
<g id="node3" class="node"><title>2</title>
<path fill="none" stroke="#78d856" stroke-width="2" d="M325.5,-406C325.5,-406 251.5,-406 251.5,-406 245.5,-406 239.5,-400 239.5,-394 239.5,-394 239.5,-382 239.5,-382 239.5,-376 245.5,-370 251.5,-370 251.5,-370 325.5,-370 325.5,-370 331.5,-370 337.5,-376 337.5,-382 337.5,-382 337.5,-394 337.5,-394 337.5,-400 331.5,-406 325.5,-406"/>
<text text-anchor="middle" x="288.5" y="-385.5" font-family="sans" font-size="10.00">picard_HsMetrics</text>
</g>
<!-- 2&#45;&gt;0 -->
<g id="edge2" class="edge"><title>2&#45;&gt;0</title>
<path fill="none" stroke="grey" stroke-width="2" d="M289.657,-369.81C291.4,-342.376 294.5,-286.997 294.5,-240 294.5,-240 294.5,-240 294.5,-163.5 294.5,-74.772 419.445,-38.1635 483.941,-25.1769"/>
<polygon fill="grey" stroke="grey" stroke-width="2" points="484.958,-28.5457 494.118,-23.2227 483.638,-21.6712 484.958,-28.5457"/>
</g>
<!-- 3 -->
<g id="node4" class="node"><title>3</title>
<path fill="none" stroke="#61d856" stroke-width="2" d="M468,-331.5C468,-331.5 359,-331.5 359,-331.5 353,-331.5 347,-325.5 347,-319.5 347,-319.5 347,-307.5 347,-307.5 347,-301.5 353,-295.5 359,-295.5 359,-295.5 468,-295.5 468,-295.5 474,-295.5 480,-301.5 480,-307.5 480,-307.5 480,-319.5 480,-319.5 480,-325.5 474,-331.5 468,-331.5"/>
<text text-anchor="middle" x="413.5" y="-311" font-family="sans" font-size="10.00">picard_InsertSizeMetrics</text>
</g>
<!-- 3&#45;&gt;0 -->
<g id="edge3" class="edge"><title>3&#45;&gt;0</title>
<path fill="none" stroke="grey" stroke-width="2" d="M411.564,-295.257C407.75,-253.539 403.133,-145.207 447.5,-72 456.436,-57.2557 471.196,-45.4525 485.192,-36.7616"/>
<polygon fill="grey" stroke="grey" stroke-width="2" points="487.337,-39.5624 494.211,-31.5002 483.81,-33.5161 487.337,-39.5624"/>
</g>
<!-- 4 -->
<g id="node5" class="node"><title>4</title>
<path fill="none" stroke="#78d856" stroke-width="2" d="M900.5,-406C900.5,-406 826.5,-406 826.5,-406 820.5,-406 814.5,-400 814.5,-394 814.5,-394 814.5,-382 814.5,-382 814.5,-376 820.5,-370 826.5,-370 826.5,-370 900.5,-370 900.5,-370 906.5,-370 912.5,-376 912.5,-382 912.5,-382 912.5,-394 912.5,-394 912.5,-400 906.5,-406 900.5,-406"/>
<text text-anchor="middle" x="863.5" y="-385.5" font-family="sans" font-size="10.00">picard_HsMetrics</text>
</g>
<!-- 4&#45;&gt;0 -->
<g id="edge4" class="edge"><title>4&#45;&gt;0</title>
<path fill="none" stroke="grey" stroke-width="2" d="M859.644,-369.903C853.832,-342.598 843.5,-287.391 843.5,-240 843.5,-240 843.5,-240 843.5,-163.5 843.5,-39.956 643.757,-21.3832 558.908,-19.067"/>
<polygon fill="grey" stroke="grey" stroke-width="2" points="558.747,-15.563 548.676,-18.8521 558.6,-22.5614 558.747,-15.563"/>
</g>
<!-- 5 -->
<g id="node6" class="node"><title>5</title>
<path fill="none" stroke="#61d856" stroke-width="2" d="M771,-257C771,-257 662,-257 662,-257 656,-257 650,-251 650,-245 650,-245 650,-233 650,-233 650,-227 656,-221 662,-221 662,-221 771,-221 771,-221 777,-221 783,-227 783,-233 783,-233 783,-245 783,-245 783,-251 777,-257 771,-257"/>
<text text-anchor="middle" x="716.5" y="-236.5" font-family="sans" font-size="10.00">picard_InsertSizeMetrics</text>
</g>
<!-- 5&#45;&gt;0 -->
<g id="edge5" class="edge"><title>5&#45;&gt;0</title>
<path fill="none" stroke="grey" stroke-width="2" d="M711.022,-220.968C704.183,-201.265 691.194,-168.411 673.5,-144 641.841,-100.322 591.414,-62.9727 557.413,-40.7602"/>
<polygon fill="grey" stroke="grey" stroke-width="2" points="559.022,-37.6338 548.716,-35.1742 555.239,-43.5235 559.022,-37.6338"/>
</g>
<!-- 6 -->
<g id="node7" class="node"><title>6</title>
<path fill="none" stroke="#5682d8" stroke-width="2" d="M243,-550C243,-550 60,-550 60,-550 54,-550 48,-544 48,-538 48,-538 48,-526 48,-526 48,-520 54,-514 60,-514 60,-514 243,-514 243,-514 249,-514 255,-520 255,-526 255,-526 255,-538 255,-538 255,-544 249,-550 243,-550"/>
<text text-anchor="middle" x="151.5" y="-529.5" font-family="sans" font-size="10.00">gatk_BaseRecalibrator_post_recal_table</text>
</g>
<!-- 6&#45;&gt;0 -->
<g id="edge6" class="edge"><title>6&#45;&gt;0</title>
<path fill="none" stroke="grey" stroke-width="2" d="M151.5,-513.951C151.5,-487.292 151.5,-434.115 151.5,-389 151.5,-389 151.5,-389 151.5,-163.5 151.5,-92.544 390.585,-42.2917 484.378,-25.3077"/>
<polygon fill="grey" stroke="grey" stroke-width="2" points="485.063,-28.7408 494.293,-23.5386 483.834,-21.8496 485.063,-28.7408"/>
</g>
<!-- 7 -->
<g id="node8" class="node"><title>7</title>
<path fill="none" stroke="#5682d8" stroke-width="2" d="M1092,-550C1092,-550 909,-550 909,-550 903,-550 897,-544 897,-538 897,-538 897,-526 897,-526 897,-520 903,-514 909,-514 909,-514 1092,-514 1092,-514 1098,-514 1104,-520 1104,-526 1104,-526 1104,-538 1104,-538 1104,-544 1098,-550 1092,-550"/>
<text text-anchor="middle" x="1000.5" y="-529.5" font-family="sans" font-size="10.00">gatk_BaseRecalibrator_post_recal_table</text>
</g>
<!-- 7&#45;&gt;0 -->
<g id="edge7" class="edge"><title>7&#45;&gt;0</title>
<path fill="none" stroke="grey" stroke-width="2" d="M1000.5,-513.951C1000.5,-487.292 1000.5,-434.115 1000.5,-389 1000.5,-389 1000.5,-389 1000.5,-163.5 1000.5,-71.3592 671.522,-32.6961 558.837,-22.1555"/>
<polygon fill="grey" stroke="grey" stroke-width="2" points="558.903,-18.647 548.626,-21.2224 558.266,-25.618 558.903,-18.647"/>
</g>
<!-- 8 -->
<g id="node9" class="node"><title>8</title>
<path fill="none" stroke="#a7d856" stroke-width="2" d="M596.5,-257C596.5,-257 490.5,-257 490.5,-257 484.5,-257 478.5,-251 478.5,-245 478.5,-245 478.5,-233 478.5,-233 478.5,-227 484.5,-221 490.5,-221 490.5,-221 596.5,-221 596.5,-221 602.5,-221 608.5,-227 608.5,-233 608.5,-233 608.5,-245 608.5,-245 608.5,-251 602.5,-257 596.5,-257"/>
<text text-anchor="middle" x="543.5" y="-236.5" font-family="sans" font-size="10.00">gatk_ApplyRecalibration</text>
</g>
<!-- 8&#45;&gt;1 -->
<g id="edge8" class="edge"><title>8&#45;&gt;1</title>
<path fill="none" stroke="grey" stroke-width="2" d="M530.773,-220.845C524.214,-210.923 516.893,-197.883 513.5,-185 507.692,-162.95 510.567,-137.083 514.399,-118.071"/>
<polygon fill="grey" stroke="grey" stroke-width="2" points="517.821,-118.804 516.577,-108.282 510.988,-117.283 517.821,-118.804"/>
</g>
<!-- 9 -->
<g id="node10" class="node"><title>9</title>
<path fill="none" stroke="#d8c356" stroke-width="2" d="M652.5,-185C652.5,-185 534.5,-185 534.5,-185 528.5,-185 522.5,-179 522.5,-173 522.5,-173 522.5,-156 522.5,-156 522.5,-150 528.5,-144 534.5,-144 534.5,-144 652.5,-144 652.5,-144 658.5,-144 664.5,-150 664.5,-156 664.5,-156 664.5,-173 664.5,-173 664.5,-179 658.5,-185 652.5,-185"/>
<text text-anchor="middle" x="593.5" y="-173" font-family="sans" font-size="10.00">gatk_VariantRecalibrator</text>
<text text-anchor="middle" x="593.5" y="-162" font-family="sans" font-size="10.00">prefix: all.snp_recalibrated</text>
<text text-anchor="middle" x="593.5" y="-151" font-family="sans" font-size="10.00">type: indel</text>
</g>
<!-- 8&#45;&gt;9 -->
<g id="edge22" class="edge"><title>8&#45;&gt;9</title>
<path fill="none" stroke="grey" stroke-width="2" d="M555.349,-220.819C560.952,-212.695 567.786,-202.786 574.114,-193.61"/>
<polygon fill="grey" stroke="grey" stroke-width="2" points="577.173,-195.339 579.969,-185.12 571.411,-191.365 577.173,-195.339"/>
</g>
<!-- 9&#45;&gt;1 -->
<g id="edge9" class="edge"><title>9&#45;&gt;1</title>
<path fill="none" stroke="grey" stroke-width="2" d="M573.826,-143.689C565.238,-135.042 555.078,-124.811 546.006,-115.676"/>
<polygon fill="grey" stroke="grey" stroke-width="2" points="548.23,-112.949 538.7,-108.319 543.263,-117.881 548.23,-112.949"/>
</g>
<!-- 10 -->
<g id="node11" class="node"><title>10</title>
<path fill="none" stroke="#56d8b9" stroke-width="2" d="M287,-478C287,-478 192,-478 192,-478 186,-478 180,-472 180,-466 180,-466 180,-454 180,-454 180,-448 186,-442 192,-442 192,-442 287,-442 287,-442 293,-442 299,-448 299,-454 299,-454 299,-466 299,-466 299,-472 293,-478 287,-478"/>
<text text-anchor="middle" x="239.5" y="-457.5" font-family="sans" font-size="10.00">picard_pre_HsMetrics</text>
</g>
<!-- 10&#45;&gt;2 -->
<g id="edge10" class="edge"><title>10&#45;&gt;2</title>
<path fill="none" stroke="grey" stroke-width="2" d="M251.612,-441.697C257.368,-433.474 264.362,-423.483 270.706,-414.421"/>
<polygon fill="grey" stroke="grey" stroke-width="2" points="273.66,-416.304 276.527,-406.104 267.925,-412.29 273.66,-416.304"/>
</g>
<!-- 11 -->
<g id="node12" class="node"><title>11</title>
<path fill="none" stroke="#d6d856" stroke-width="2" d="M377,-550C377,-550 308,-550 308,-550 302,-550 296,-544 296,-538 296,-538 296,-526 296,-526 296,-520 302,-514 308,-514 308,-514 377,-514 377,-514 383,-514 389,-520 389,-526 389,-526 389,-538 389,-538 389,-544 383,-550 377,-550"/>
<text text-anchor="middle" x="342.5" y="-529.5" font-family="sans" font-size="10.00">gatk_PrintReads</text>
</g>
<!-- 11&#45;&gt;2 -->
<g id="edge11" class="edge"><title>11&#45;&gt;2</title>
<path fill="none" stroke="grey" stroke-width="2" d="M335.986,-513.871C326.702,-489.457 309.577,-444.426 298.629,-415.635"/>
<polygon fill="grey" stroke="grey" stroke-width="2" points="301.863,-414.292 295.037,-406.189 295.32,-416.78 301.863,-414.292"/>
</g>
<!-- 11&#45;&gt;3 -->
<g id="edge12" class="edge"><title>11&#45;&gt;3</title>
<path fill="none" stroke="grey" stroke-width="2" d="M348.19,-513.649C360.554,-475.947 389.943,-386.331 404.711,-341.299"/>
<polygon fill="grey" stroke="grey" stroke-width="2" points="408.091,-342.226 407.881,-331.633 401.439,-340.045 408.091,-342.226"/>
</g>
<!-- 11&#45;&gt;10 -->
<g id="edge23" class="edge"><title>11&#45;&gt;10</title>
<path fill="none" stroke="grey" stroke-width="2" d="M317.303,-513.876C304.086,-504.893 287.708,-493.763 273.393,-484.034"/>
<polygon fill="grey" stroke="grey" stroke-width="2" points="275.032,-480.916 264.793,-478.19 271.097,-486.705 275.032,-480.916"/>
</g>
<!-- 24 -->
<g id="node25" class="node"><title>24</title>
<path fill="none" stroke="#d86e56" stroke-width="2" d="M555,-478C555,-478 406,-478 406,-478 400,-478 394,-472 394,-466 394,-466 394,-454 394,-454 394,-448 400,-442 406,-442 406,-442 555,-442 555,-442 561,-442 567,-448 567,-454 567,-454 567,-466 567,-466 567,-472 561,-478 555,-478"/>
<text text-anchor="middle" x="480.5" y="-457.5" font-family="sans" font-size="10.00">gatk_HaplotypeCaller_ERC_GVCF</text>
</g>
<!-- 11&#45;&gt;24 -->
<g id="edge42" class="edge"><title>11&#45;&gt;24</title>
<path fill="none" stroke="grey" stroke-width="2" d="M376.259,-513.876C394.72,-504.512 417.782,-492.814 437.517,-482.803"/>
<polygon fill="grey" stroke="grey" stroke-width="2" points="439.277,-485.835 446.612,-478.19 436.11,-479.592 439.277,-485.835"/>
</g>
<!-- 12 -->
<g id="node13" class="node"><title>12</title>
<path fill="none" stroke="#56d8b9" stroke-width="2" d="M960,-478C960,-478 865,-478 865,-478 859,-478 853,-472 853,-466 853,-466 853,-454 853,-454 853,-448 859,-442 865,-442 865,-442 960,-442 960,-442 966,-442 972,-448 972,-454 972,-454 972,-466 972,-466 972,-472 966,-478 960,-478"/>
<text text-anchor="middle" x="912.5" y="-457.5" font-family="sans" font-size="10.00">picard_pre_HsMetrics</text>
</g>
<!-- 12&#45;&gt;4 -->
<g id="edge13" class="edge"><title>12&#45;&gt;4</title>
<path fill="none" stroke="grey" stroke-width="2" d="M900.388,-441.697C894.632,-433.474 887.638,-423.483 881.294,-414.421"/>
<polygon fill="grey" stroke="grey" stroke-width="2" points="884.075,-412.29 875.473,-406.104 878.34,-416.304 884.075,-412.29"/>
</g>
<!-- 13 -->
<g id="node14" class="node"><title>13</title>
<path fill="none" stroke="#d6d856" stroke-width="2" d="M840,-550C840,-550 771,-550 771,-550 765,-550 759,-544 759,-538 759,-538 759,-526 759,-526 759,-520 765,-514 771,-514 771,-514 840,-514 840,-514 846,-514 852,-520 852,-526 852,-526 852,-538 852,-538 852,-544 846,-550 840,-550"/>
<text text-anchor="middle" x="805.5" y="-529.5" font-family="sans" font-size="10.00">gatk_PrintReads</text>
</g>
<!-- 13&#45;&gt;4 -->
<g id="edge14" class="edge"><title>13&#45;&gt;4</title>
<path fill="none" stroke="grey" stroke-width="2" d="M812.496,-513.871C822.468,-489.457 840.861,-444.426 852.621,-415.635"/>
<polygon fill="grey" stroke="grey" stroke-width="2" points="855.938,-416.77 856.479,-406.189 849.458,-414.123 855.938,-416.77"/>
</g>
<!-- 13&#45;&gt;5 -->
<g id="edge15" class="edge"><title>13&#45;&gt;5</title>
<path fill="none" stroke="grey" stroke-width="2" d="M800.199,-513.668C785.266,-464.843 742.769,-325.89 724.744,-266.955"/>
<polygon fill="grey" stroke="grey" stroke-width="2" points="728.045,-265.78 721.773,-257.241 721.351,-267.828 728.045,-265.78"/>
</g>
<!-- 13&#45;&gt;12 -->
<g id="edge26" class="edge"><title>13&#45;&gt;12</title>
<path fill="none" stroke="grey" stroke-width="2" d="M831.675,-513.876C845.536,-504.808 862.741,-493.552 877.711,-483.759"/>
<polygon fill="grey" stroke="grey" stroke-width="2" points="879.772,-486.593 886.224,-478.19 875.94,-480.735 879.772,-486.593"/>
</g>
<!-- 25 -->
<g id="node26" class="node"><title>25</title>
<path fill="none" stroke="#d86e56" stroke-width="2" d="M746,-478C746,-478 597,-478 597,-478 591,-478 585,-472 585,-466 585,-466 585,-454 585,-454 585,-448 591,-442 597,-442 597,-442 746,-442 746,-442 752,-442 758,-448 758,-454 758,-454 758,-466 758,-466 758,-472 752,-478 746,-478"/>
<text text-anchor="middle" x="671.5" y="-457.5" font-family="sans" font-size="10.00">gatk_HaplotypeCaller_ERC_GVCF</text>
</g>
<!-- 13&#45;&gt;25 -->
<g id="edge43" class="edge"><title>13&#45;&gt;25</title>
<path fill="none" stroke="grey" stroke-width="2" d="M772.72,-513.876C754.875,-504.554 732.603,-492.919 713.497,-482.939"/>
<polygon fill="grey" stroke="grey" stroke-width="2" points="714.89,-479.718 704.406,-478.19 711.649,-485.922 714.89,-479.718"/>
</g>
<!-- 14 -->
<g id="node15" class="node"><title>14</title>
<path fill="none" stroke="#56d87b" stroke-width="2" d="M318,-622C318,-622 161,-622 161,-622 155,-622 149,-616 149,-610 149,-610 149,-598 149,-598 149,-592 155,-586 161,-586 161,-586 318,-586 318,-586 324,-586 330,-592 330,-598 330,-598 330,-610 330,-610 330,-616 324,-622 318,-622"/>
<text text-anchor="middle" x="239.5" y="-601.5" font-family="sans" font-size="10.00">gatk_BaseRecalibrator_recal_table</text>
</g>
<!-- 14&#45;&gt;6 -->
<g id="edge16" class="edge"><title>14&#45;&gt;6</title>
<path fill="none" stroke="grey" stroke-width="2" d="M217.747,-585.697C206.664,-576.881 193.026,-566.032 181.01,-556.474"/>
<polygon fill="grey" stroke="grey" stroke-width="2" points="183.007,-553.59 173.003,-550.104 178.65,-559.069 183.007,-553.59"/>
</g>
<!-- 14&#45;&gt;11 -->
<g id="edge24" class="edge"><title>14&#45;&gt;11</title>
<path fill="none" stroke="grey" stroke-width="2" d="M264.697,-585.876C277.914,-576.893 294.292,-565.763 308.607,-556.034"/>
<polygon fill="grey" stroke="grey" stroke-width="2" points="310.903,-558.705 317.207,-550.19 306.968,-552.916 310.903,-558.705"/>
</g>
<!-- 15 -->
<g id="node16" class="node"><title>15</title>
<path fill="none" stroke="#56d863" stroke-width="2" d="M282,-694C282,-694 197,-694 197,-694 191,-694 185,-688 185,-682 185,-682 185,-670 185,-670 185,-664 191,-658 197,-658 197,-658 282,-658 282,-658 288,-658 294,-664 294,-670 294,-670 294,-682 294,-682 294,-688 288,-694 282,-694"/>
<text text-anchor="middle" x="239.5" y="-673.5" font-family="sans" font-size="10.00">gatk_IndelRealigner</text>
</g>
<!-- 15&#45;&gt;6 -->
<g id="edge17" class="edge"><title>15&#45;&gt;6</title>
<path fill="none" stroke="grey" stroke-width="2" d="M184.905,-658.82C167.281,-650.723 149.682,-638.92 139.5,-622 128.188,-603.203 132.937,-578.181 139.508,-559.456"/>
<polygon fill="grey" stroke="grey" stroke-width="2" points="142.806,-560.633 143.145,-550.043 136.276,-558.11 142.806,-560.633"/>
</g>
<!-- 15&#45;&gt;11 -->
<g id="edge25" class="edge"><title>15&#45;&gt;11</title>
<path fill="none" stroke="grey" stroke-width="2" d="M294.188,-657.952C311.25,-649.84 328.266,-638.249 338.5,-622 349.992,-603.754 350.154,-578.986 347.917,-560.211"/>
<polygon fill="grey" stroke="grey" stroke-width="2" points="351.364,-559.591 346.438,-550.21 344.439,-560.615 351.364,-559.591"/>
</g>
<!-- 15&#45;&gt;14 -->
<g id="edge29" class="edge"><title>15&#45;&gt;14</title>
<path fill="none" stroke="grey" stroke-width="2" d="M239.5,-657.697C239.5,-649.983 239.5,-640.712 239.5,-632.112"/>
<polygon fill="grey" stroke="grey" stroke-width="2" points="243,-632.104 239.5,-622.104 236,-632.104 243,-632.104"/>
</g>
<!-- 16 -->
<g id="node17" class="node"><title>16</title>
<path fill="none" stroke="#56d87b" stroke-width="2" d="M972,-622C972,-622 815,-622 815,-622 809,-622 803,-616 803,-610 803,-610 803,-598 803,-598 803,-592 809,-586 815,-586 815,-586 972,-586 972,-586 978,-586 984,-592 984,-598 984,-598 984,-610 984,-610 984,-616 978,-622 972,-622"/>
<text text-anchor="middle" x="893.5" y="-601.5" font-family="sans" font-size="10.00">gatk_BaseRecalibrator_recal_table</text>
</g>
<!-- 16&#45;&gt;7 -->
<g id="edge18" class="edge"><title>16&#45;&gt;7</title>
<path fill="none" stroke="grey" stroke-width="2" d="M919.675,-585.876C933.536,-576.808 950.741,-565.552 965.711,-555.759"/>
<polygon fill="grey" stroke="grey" stroke-width="2" points="967.772,-558.593 974.224,-550.19 963.94,-552.735 967.772,-558.593"/>
</g>
<!-- 16&#45;&gt;13 -->
<g id="edge27" class="edge"><title>16&#45;&gt;13</title>
<path fill="none" stroke="grey" stroke-width="2" d="M871.747,-585.697C860.664,-576.881 847.026,-566.032 835.01,-556.474"/>
<polygon fill="grey" stroke="grey" stroke-width="2" points="837.007,-553.59 827.003,-550.104 832.65,-559.069 837.007,-553.59"/>
</g>
<!-- 17 -->
<g id="node18" class="node"><title>17</title>
<path fill="none" stroke="#56d863" stroke-width="2" d="M936,-694C936,-694 851,-694 851,-694 845,-694 839,-688 839,-682 839,-682 839,-670 839,-670 839,-664 845,-658 851,-658 851,-658 936,-658 936,-658 942,-658 948,-664 948,-670 948,-670 948,-682 948,-682 948,-688 942,-694 936,-694"/>
<text text-anchor="middle" x="893.5" y="-673.5" font-family="sans" font-size="10.00">gatk_IndelRealigner</text>
</g>
<!-- 17&#45;&gt;7 -->
<g id="edge19" class="edge"><title>17&#45;&gt;7</title>
<path fill="none" stroke="grey" stroke-width="2" d="M947.259,-657.934C964.459,-649.787 981.797,-638.178 992.5,-622 1004.43,-603.962 1005.74,-579.175 1004.46,-560.34"/>
<polygon fill="grey" stroke="grey" stroke-width="2" points="1007.93,-559.923 1003.5,-550.302 1000.97,-560.59 1007.93,-559.923"/>
</g>
<!-- 17&#45;&gt;13 -->
<g id="edge28" class="edge"><title>17&#45;&gt;13</title>
<path fill="none" stroke="grey" stroke-width="2" d="M838.905,-658.82C821.281,-650.723 803.682,-638.92 793.5,-622 782.188,-603.203 786.937,-578.181 793.508,-559.456"/>
<polygon fill="grey" stroke="grey" stroke-width="2" points="796.806,-560.633 797.145,-550.043 790.276,-558.11 796.806,-560.633"/>
</g>
<!-- 17&#45;&gt;16 -->
<g id="edge32" class="edge"><title>17&#45;&gt;16</title>
<path fill="none" stroke="grey" stroke-width="2" d="M893.5,-657.697C893.5,-649.983 893.5,-640.712 893.5,-632.112"/>
<polygon fill="grey" stroke="grey" stroke-width="2" points="897,-632.104 893.5,-622.104 890,-632.104 897,-632.104"/>
</g>
<!-- 18 -->
<g id="node19" class="node"><title>18</title>
<path fill="none" stroke="#d85656" stroke-width="2" d="M575,-406C575,-406 478,-406 478,-406 472,-406 466,-400 466,-394 466,-394 466,-382 466,-382 466,-376 472,-370 478,-370 478,-370 575,-370 575,-370 581,-370 587,-376 587,-382 587,-382 587,-394 587,-394 587,-400 581,-406 575,-406"/>
<text text-anchor="middle" x="526.5" y="-385.5" font-family="sans" font-size="10.00">gatk_GenotypeGVCFs</text>
</g>
<!-- 18&#45;&gt;8 -->
<g id="edge20" class="edge"><title>18&#45;&gt;8</title>
<path fill="none" stroke="grey" stroke-width="2" d="M528.483,-369.85C531.401,-344.622 536.878,-297.261 540.349,-267.243"/>
<polygon fill="grey" stroke="grey" stroke-width="2" points="543.857,-267.377 541.529,-257.041 536.904,-266.573 543.857,-267.377"/>
</g>
<!-- 19 -->
<g id="node20" class="node"><title>19</title>
<path fill="none" stroke="#d8c356" stroke-width="2" d="M670,-334C670,-334 561,-334 561,-334 555,-334 549,-328 549,-322 549,-322 549,-305 549,-305 549,-299 555,-293 561,-293 561,-293 670,-293 670,-293 676,-293 682,-299 682,-305 682,-305 682,-322 682,-322 682,-328 676,-334 670,-334"/>
<text text-anchor="middle" x="615.5" y="-322" font-family="sans" font-size="10.00">gatk_VariantRecalibrator</text>
<text text-anchor="middle" x="615.5" y="-311" font-family="sans" font-size="10.00">prefix: all</text>
<text text-anchor="middle" x="615.5" y="-300" font-family="sans" font-size="10.00">type: snp</text>
</g>
<!-- 18&#45;&gt;19 -->
<g id="edge37" class="edge"><title>18&#45;&gt;19</title>
<path fill="none" stroke="grey" stroke-width="2" d="M547.592,-369.819C558.284,-361.109 571.496,-350.346 583.416,-340.636"/>
<polygon fill="grey" stroke="grey" stroke-width="2" points="585.873,-343.149 591.415,-334.12 581.452,-337.722 585.873,-343.149"/>
</g>
<!-- 19&#45;&gt;8 -->
<g id="edge21" class="edge"><title>19&#45;&gt;8</title>
<path fill="none" stroke="grey" stroke-width="2" d="M595.826,-292.689C587.238,-284.042 577.078,-273.811 568.006,-264.676"/>
<polygon fill="grey" stroke="grey" stroke-width="2" points="570.23,-261.949 560.7,-257.319 565.263,-266.881 570.23,-261.949"/>
</g>
<!-- 20 -->
<g id="node21" class="node"><title>20</title>
<path fill="none" stroke="#d89c56" stroke-width="2" d="M251.5,-766C251.5,-766 123.5,-766 123.5,-766 117.5,-766 111.5,-760 111.5,-754 111.5,-754 111.5,-742 111.5,-742 111.5,-736 117.5,-730 123.5,-730 123.5,-730 251.5,-730 251.5,-730 257.5,-730 263.5,-736 263.5,-742 263.5,-742 263.5,-754 263.5,-754 263.5,-760 257.5,-766 251.5,-766"/>
<text text-anchor="middle" x="187.5" y="-745.5" font-family="sans" font-size="10.00">gatk_RealignerTargetCreator</text>
</g>
<!-- 20&#45;&gt;15 -->
<g id="edge30" class="edge"><title>20&#45;&gt;15</title>
<path fill="none" stroke="grey" stroke-width="2" d="M200.354,-729.697C206.525,-721.389 214.037,-711.277 220.824,-702.141"/>
<polygon fill="grey" stroke="grey" stroke-width="2" points="223.64,-704.219 226.794,-694.104 218.021,-700.045 223.64,-704.219"/>
</g>
<!-- 21 -->
<g id="node22" class="node"><title>21</title>
<path fill="none" stroke="#d8b456" stroke-width="2" d="M290,-838C290,-838 189,-838 189,-838 183,-838 177,-832 177,-826 177,-826 177,-814 177,-814 177,-808 183,-802 189,-802 189,-802 290,-802 290,-802 296,-802 302,-808 302,-814 302,-814 302,-826 302,-826 302,-832 296,-838 290,-838"/>
<text text-anchor="middle" x="239.5" y="-817.5" font-family="sans" font-size="10.00">picard_MarkDuplicates</text>
</g>
<!-- 21&#45;&gt;15 -->
<g id="edge31" class="edge"><title>21&#45;&gt;15</title>
<path fill="none" stroke="grey" stroke-width="2" d="M253.827,-801.566C260.948,-791.762 268.806,-778.923 272.5,-766 276.898,-750.616 276.898,-745.384 272.5,-730 269.787,-720.51 264.828,-711.065 259.565,-702.834"/>
<polygon fill="grey" stroke="grey" stroke-width="2" points="262.358,-700.717 253.827,-694.434 256.578,-704.666 262.358,-700.717"/>
</g>
<!-- 21&#45;&gt;20 -->
<g id="edge38" class="edge"><title>21&#45;&gt;20</title>
<path fill="none" stroke="grey" stroke-width="2" d="M226.646,-801.697C220.475,-793.389 212.963,-783.277 206.176,-774.141"/>
<polygon fill="grey" stroke="grey" stroke-width="2" points="208.979,-772.045 200.206,-766.104 203.36,-776.219 208.979,-772.045"/>
</g>
<!-- 22 -->
<g id="node23" class="node"><title>22</title>
<path fill="none" stroke="#d8b456" stroke-width="2" d="M944,-838C944,-838 843,-838 843,-838 837,-838 831,-832 831,-826 831,-826 831,-814 831,-814 831,-808 837,-802 843,-802 843,-802 944,-802 944,-802 950,-802 956,-808 956,-814 956,-814 956,-826 956,-826 956,-832 950,-838 944,-838"/>
<text text-anchor="middle" x="893.5" y="-817.5" font-family="sans" font-size="10.00">picard_MarkDuplicates</text>
</g>
<!-- 22&#45;&gt;17 -->
<g id="edge33" class="edge"><title>22&#45;&gt;17</title>
<path fill="none" stroke="grey" stroke-width="2" d="M879.173,-801.566C872.052,-791.762 864.194,-778.923 860.5,-766 856.102,-750.616 856.102,-745.384 860.5,-730 863.213,-720.51 868.172,-711.065 873.435,-702.834"/>
<polygon fill="grey" stroke="grey" stroke-width="2" points="876.422,-704.666 879.173,-694.434 870.642,-700.717 876.422,-704.666"/>
</g>
<!-- 23 -->
<g id="node24" class="node"><title>23</title>
<path fill="none" stroke="#d89c56" stroke-width="2" d="M1009.5,-766C1009.5,-766 881.5,-766 881.5,-766 875.5,-766 869.5,-760 869.5,-754 869.5,-754 869.5,-742 869.5,-742 869.5,-736 875.5,-730 881.5,-730 881.5,-730 1009.5,-730 1009.5,-730 1015.5,-730 1021.5,-736 1021.5,-742 1021.5,-742 1021.5,-754 1021.5,-754 1021.5,-760 1015.5,-766 1009.5,-766"/>
<text text-anchor="middle" x="945.5" y="-745.5" font-family="sans" font-size="10.00">gatk_RealignerTargetCreator</text>
</g>
<!-- 22&#45;&gt;23 -->
<g id="edge41" class="edge"><title>22&#45;&gt;23</title>
<path fill="none" stroke="grey" stroke-width="2" d="M906.354,-801.697C912.525,-793.389 920.037,-783.277 926.824,-774.141"/>
<polygon fill="grey" stroke="grey" stroke-width="2" points="929.64,-776.219 932.794,-766.104 924.021,-772.045 929.64,-776.219"/>
</g>
<!-- 23&#45;&gt;17 -->
<g id="edge34" class="edge"><title>23&#45;&gt;17</title>
<path fill="none" stroke="grey" stroke-width="2" d="M932.646,-729.697C926.475,-721.389 918.963,-711.277 912.176,-702.141"/>
<polygon fill="grey" stroke="grey" stroke-width="2" points="914.979,-700.045 906.206,-694.104 909.36,-704.219 914.979,-700.045"/>
</g>
<!-- 24&#45;&gt;18 -->
<g id="edge35" class="edge"><title>24&#45;&gt;18</title>
<path fill="none" stroke="grey" stroke-width="2" d="M491.871,-441.697C497.218,-433.559 503.704,-423.689 509.611,-414.701"/>
<polygon fill="grey" stroke="grey" stroke-width="2" points="512.693,-416.384 515.26,-406.104 506.843,-412.539 512.693,-416.384"/>
</g>
<!-- 25&#45;&gt;18 -->
<g id="edge36" class="edge"><title>25&#45;&gt;18</title>
<path fill="none" stroke="grey" stroke-width="2" d="M636.029,-441.876C616.383,-432.392 591.778,-420.513 570.868,-410.419"/>
<polygon fill="grey" stroke="grey" stroke-width="2" points="572.383,-407.264 561.856,-406.068 569.34,-413.568 572.383,-407.264"/>
</g>
<!-- 26 -->
<g id="node27" class="node"><title>26</title>
<path fill="none" stroke="#bed856" stroke-width="2" d="M304,-910C304,-910 175,-910 175,-910 169,-910 163,-904 163,-898 163,-898 163,-886 163,-886 163,-880 169,-874 175,-874 175,-874 304,-874 304,-874 310,-874 316,-880 316,-886 316,-886 316,-898 316,-898 316,-904 310,-910 304,-910"/>
<text text-anchor="middle" x="239.5" y="-895" font-family="sans" font-size="10.00">samtools_merge_bam</text>
<text text-anchor="middle" x="239.5" y="-884" font-family="sans" font-size="10.00">sample: DNA16&#45;0284&#45;R0001</text>
</g>
<!-- 26&#45;&gt;21 -->
<g id="edge39" class="edge"><title>26&#45;&gt;21</title>
<path fill="none" stroke="grey" stroke-width="2" d="M239.5,-873.697C239.5,-865.983 239.5,-856.712 239.5,-848.112"/>
<polygon fill="grey" stroke="grey" stroke-width="2" points="243,-848.104 239.5,-838.104 236,-848.104 243,-848.104"/>
</g>
<!-- 27 -->
<g id="node28" class="node"><title>27</title>
<path fill="none" stroke="#bed856" stroke-width="2" d="M958,-910C958,-910 829,-910 829,-910 823,-910 817,-904 817,-898 817,-898 817,-886 817,-886 817,-880 823,-874 829,-874 829,-874 958,-874 958,-874 964,-874 970,-880 970,-886 970,-886 970,-898 970,-898 970,-904 964,-910 958,-910"/>
<text text-anchor="middle" x="893.5" y="-895" font-family="sans" font-size="10.00">samtools_merge_bam</text>
<text text-anchor="middle" x="893.5" y="-884" font-family="sans" font-size="10.00">sample: DNA16&#45;0389&#45;R0001</text>
</g>
<!-- 27&#45;&gt;22 -->
<g id="edge40" class="edge"><title>27&#45;&gt;22</title>
<path fill="none" stroke="grey" stroke-width="2" d="M893.5,-873.697C893.5,-865.983 893.5,-856.712 893.5,-848.112"/>
<polygon fill="grey" stroke="grey" stroke-width="2" points="897,-848.104 893.5,-838.104 890,-848.104 897,-848.104"/>
</g>
<!-- 28 -->
<g id="node29" class="node"><title>28</title>
<path fill="none" stroke="#56d8a2" stroke-width="2" d="M182,-982C182,-982 121,-982 121,-982 115,-982 109,-976 109,-970 109,-970 109,-958 109,-958 109,-952 115,-946 121,-946 121,-946 182,-946 182,-946 188,-946 194,-952 194,-958 194,-958 194,-970 194,-970 194,-976 188,-982 182,-982"/>
<text text-anchor="middle" x="151.5" y="-961.5" font-family="sans" font-size="10.00">samtools_sort</text>
</g>
<!-- 28&#45;&gt;26 -->
<g id="edge44" class="edge"><title>28&#45;&gt;26</title>
<path fill="none" stroke="grey" stroke-width="2" d="M173.253,-945.697C184.336,-936.881 197.974,-926.032 209.99,-916.474"/>
<polygon fill="grey" stroke="grey" stroke-width="2" points="212.35,-919.069 217.997,-910.104 207.993,-913.59 212.35,-919.069"/>
</g>
<!-- 29 -->
<g id="node30" class="node"><title>29</title>
<path fill="none" stroke="#56d8a2" stroke-width="2" d="M358,-982C358,-982 297,-982 297,-982 291,-982 285,-976 285,-970 285,-970 285,-958 285,-958 285,-952 291,-946 297,-946 297,-946 358,-946 358,-946 364,-946 370,-952 370,-958 370,-958 370,-970 370,-970 370,-976 364,-982 358,-982"/>
<text text-anchor="middle" x="327.5" y="-961.5" font-family="sans" font-size="10.00">samtools_sort</text>
</g>
<!-- 29&#45;&gt;26 -->
<g id="edge45" class="edge"><title>29&#45;&gt;26</title>
<path fill="none" stroke="grey" stroke-width="2" d="M305.747,-945.697C294.664,-936.881 281.026,-926.032 269.01,-916.474"/>
<polygon fill="grey" stroke="grey" stroke-width="2" points="271.007,-913.59 261.003,-910.104 266.65,-919.069 271.007,-913.59"/>
</g>
<!-- 30 -->
<g id="node31" class="node"><title>30</title>
<path fill="none" stroke="#56d8a2" stroke-width="2" d="M836,-982C836,-982 775,-982 775,-982 769,-982 763,-976 763,-970 763,-970 763,-958 763,-958 763,-952 769,-946 775,-946 775,-946 836,-946 836,-946 842,-946 848,-952 848,-958 848,-958 848,-970 848,-970 848,-976 842,-982 836,-982"/>
<text text-anchor="middle" x="805.5" y="-961.5" font-family="sans" font-size="10.00">samtools_sort</text>
</g>
<!-- 30&#45;&gt;27 -->
<g id="edge46" class="edge"><title>30&#45;&gt;27</title>
<path fill="none" stroke="grey" stroke-width="2" d="M827.253,-945.697C838.336,-936.881 851.974,-926.032 863.99,-916.474"/>
<polygon fill="grey" stroke="grey" stroke-width="2" points="866.35,-919.069 871.997,-910.104 861.993,-913.59 866.35,-919.069"/>
</g>
<!-- 31 -->
<g id="node32" class="node"><title>31</title>
<path fill="none" stroke="#56d8a2" stroke-width="2" d="M1012,-982C1012,-982 951,-982 951,-982 945,-982 939,-976 939,-970 939,-970 939,-958 939,-958 939,-952 945,-946 951,-946 951,-946 1012,-946 1012,-946 1018,-946 1024,-952 1024,-958 1024,-958 1024,-970 1024,-970 1024,-976 1018,-982 1012,-982"/>
<text text-anchor="middle" x="981.5" y="-961.5" font-family="sans" font-size="10.00">samtools_sort</text>
</g>
<!-- 31&#45;&gt;27 -->
<g id="edge47" class="edge"><title>31&#45;&gt;27</title>
<path fill="none" stroke="grey" stroke-width="2" d="M959.747,-945.697C948.664,-936.881 935.026,-926.032 923.01,-916.474"/>
<polygon fill="grey" stroke="grey" stroke-width="2" points="925.007,-913.59 915.003,-910.104 920.65,-919.069 925.007,-913.59"/>
</g>
<!-- 32 -->
<g id="node33" class="node"><title>32</title>
<path fill="none" stroke="#56d892" stroke-width="2" d="M219,-1054C219,-1054 12,-1054 12,-1054 6,-1054 1.42109e-14,-1048 1.42109e-14,-1042 1.42109e-14,-1042 1.42109e-14,-1030 1.42109e-14,-1030 1.42109e-14,-1024 6,-1018 12,-1018 12,-1018 219,-1018 219,-1018 225,-1018 231,-1024 231,-1030 231,-1030 231,-1042 231,-1042 231,-1048 225,-1054 219,-1054"/>
<text text-anchor="middle" x="115.5" y="-1039" font-family="sans" font-size="10.00">bwa_mem</text>
<text text-anchor="middle" x="115.5" y="-1028" font-family="sans" font-size="10.00">unit: AHFFMGBBXX.L005.DNA16&#45;0284&#45;R0001</text>
</g>
<!-- 32&#45;&gt;28 -->
<g id="edge48" class="edge"><title>32&#45;&gt;28</title>
<path fill="none" stroke="grey" stroke-width="2" d="M124.399,-1017.7C128.497,-1009.73 133.449,-1000.1 137.993,-991.264"/>
<polygon fill="grey" stroke="grey" stroke-width="2" points="141.242,-992.598 142.703,-982.104 135.017,-989.396 141.242,-992.598"/>
</g>
<!-- 33 -->
<g id="node34" class="node"><title>33</title>
<path fill="none" stroke="#56d892" stroke-width="2" d="M468,-1054C468,-1054 261,-1054 261,-1054 255,-1054 249,-1048 249,-1042 249,-1042 249,-1030 249,-1030 249,-1024 255,-1018 261,-1018 261,-1018 468,-1018 468,-1018 474,-1018 480,-1024 480,-1030 480,-1030 480,-1042 480,-1042 480,-1048 474,-1054 468,-1054"/>
<text text-anchor="middle" x="364.5" y="-1039" font-family="sans" font-size="10.00">bwa_mem</text>
<text text-anchor="middle" x="364.5" y="-1028" font-family="sans" font-size="10.00">unit: AHFFMGBBXX.L004.DNA16&#45;0284&#45;R0001</text>
</g>
<!-- 33&#45;&gt;29 -->
<g id="edge49" class="edge"><title>33&#45;&gt;29</title>
<path fill="none" stroke="grey" stroke-width="2" d="M355.354,-1017.7C351.097,-1009.64 345.944,-999.894 341.234,-990.982"/>
<polygon fill="grey" stroke="grey" stroke-width="2" points="344.308,-989.31 336.541,-982.104 338.12,-992.581 344.308,-989.31"/>
</g>
<!-- 34 -->
<g id="node35" class="node"><title>34</title>
<path fill="none" stroke="#56d892" stroke-width="2" d="M873,-1054C873,-1054 666,-1054 666,-1054 660,-1054 654,-1048 654,-1042 654,-1042 654,-1030 654,-1030 654,-1024 660,-1018 666,-1018 666,-1018 873,-1018 873,-1018 879,-1018 885,-1024 885,-1030 885,-1030 885,-1042 885,-1042 885,-1048 879,-1054 873,-1054"/>
<text text-anchor="middle" x="769.5" y="-1039" font-family="sans" font-size="10.00">bwa_mem</text>
<text text-anchor="middle" x="769.5" y="-1028" font-family="sans" font-size="10.00">unit: AHFFMGBBXX.L004.DNA16&#45;0389&#45;R0001</text>
</g>
<!-- 34&#45;&gt;30 -->
<g id="edge50" class="edge"><title>34&#45;&gt;30</title>
<path fill="none" stroke="grey" stroke-width="2" d="M778.399,-1017.7C782.497,-1009.73 787.449,-1000.1 791.993,-991.264"/>
<polygon fill="grey" stroke="grey" stroke-width="2" points="795.242,-992.598 796.703,-982.104 789.017,-989.396 795.242,-992.598"/>
</g>
<!-- 35 -->
<g id="node36" class="node"><title>35</title>
<path fill="none" stroke="#56d892" stroke-width="2" d="M1122,-1054C1122,-1054 915,-1054 915,-1054 909,-1054 903,-1048 903,-1042 903,-1042 903,-1030 903,-1030 903,-1024 909,-1018 915,-1018 915,-1018 1122,-1018 1122,-1018 1128,-1018 1134,-1024 1134,-1030 1134,-1030 1134,-1042 1134,-1042 1134,-1048 1128,-1054 1122,-1054"/>
<text text-anchor="middle" x="1018.5" y="-1039" font-family="sans" font-size="10.00">bwa_mem</text>
<text text-anchor="middle" x="1018.5" y="-1028" font-family="sans" font-size="10.00">unit: AHFFMGBBXX.L005.DNA16&#45;0389&#45;R0001</text>
</g>
<!-- 35&#45;&gt;31 -->
<g id="edge51" class="edge"><title>35&#45;&gt;31</title>
<path fill="none" stroke="grey" stroke-width="2" d="M1009.35,-1017.7C1005.1,-1009.64 999.944,-999.894 995.234,-990.982"/>
<polygon fill="grey" stroke="grey" stroke-width="2" points="998.308,-989.31 990.541,-982.104 992.12,-992.581 998.308,-989.31"/>
</g>
</g>
</svg>
